<?xml version="1.0" encoding="UTF-8" standalone="no"?>
<svg
   xmlns:dc="http://purl.org/dc/elements/1.1/"
   xmlns:cc="http://creativecommons.org/ns#"
   xmlns:rdf="http://www.w3.org/1999/02/22-rdf-syntax-ns#"
   xmlns:svg="http://www.w3.org/2000/svg"
   xmlns="http://www.w3.org/2000/svg"
   xmlns:sodipodi="http://sodipodi.sourceforge.net/DTD/sodipodi-0.dtd"
   xmlns:inkscape="http://www.inkscape.org/namespaces/inkscape"
   width="48.397938mm"
   height="28.675686mm"
   viewBox="0 0 48.397938 28.675686"
   version="1.1"
   id="svg980"
   inkscape:version="1.0.1 (3bc2e813f5, 2020-09-07)"
   sodipodi:docname="whose-round-text.svg">
  <defs
     id="defs974" />
  <sodipodi:namedview
     id="base"
     pagecolor="#ffffff"
     bordercolor="#666666"
     borderopacity="1.0"
     inkscape:pageopacity="0.0"
     inkscape:pageshadow="2"
     inkscape:zoom="3.959798"
     inkscape:cx="90.644775"
     inkscape:cy="73.065111"
     inkscape:document-units="mm"
     inkscape:current-layer="layer1"
     inkscape:document-rotation="0"
     showgrid="false"
     inkscape:window-width="1267"
     inkscape:window-height="1198"
     inkscape:window-x="2690"
     inkscape:window-y="44"
     inkscape:window-maximized="0" />
  <metadata
     id="metadata977">
    <rdf:RDF>
      <cc:Work
         rdf:about="">
        <dc:format>image/svg+xml</dc:format>
        <dc:type
           rdf:resource="http://purl.org/dc/dcmitype/StillImage" />
        <dc:title></dc:title>
      </cc:Work>
    </rdf:RDF>
  </metadata>
  <g
     inkscape:label="Layer 1"
     inkscape:groupmode="layer"
     id="layer1"
     transform="translate(-127.74746,-112.66217)">
    <path
       id="path1803"
       style="color:#000000;font-style:normal;font-variant:normal;font-weight:normal;font-stretch:normal;font-size:10.5833px;line-height:1.25;font-family:'Peace Sans';-inkscape-font-specification:'Peace Sans';font-variant-ligatures:normal;font-variant-position:normal;font-variant-caps:normal;font-variant-numeric:normal;font-variant-alternates:normal;font-variant-east-asian:normal;font-feature-settings:normal;font-variation-settings:normal;text-indent:0;text-align:start;text-decoration:none;text-decoration-line:none;text-decoration-style:solid;text-decoration-color:#000000;letter-spacing:normal;word-spacing:normal;text-transform:none;writing-mode:lr-tb;direction:ltr;text-orientation:mixed;dominant-baseline:auto;baseline-shift:baseline;text-anchor:start;white-space:normal;shape-padding:0;shape-margin:0;inline-size:0;clip-rule:nonzero;display:inline;overflow:visible;visibility:visible;isolation:auto;mix-blend-mode:normal;color-interpolation:sRGB;color-interpolation-filters:linearRGB;solid-color:#000000;solid-opacity:1;vector-effect:none;fill:#1a1a1a;fill-opacity:1;fill-rule:nonzero;stroke:#1a1a1a;stroke-width:2.91042;stroke-linecap:round;stroke-linejoin:round;stroke-miterlimit:4;stroke-dasharray:none;stroke-dashoffset:0;stroke-opacity:1;color-rendering:auto;image-rendering:auto;shape-rendering:auto;text-rendering:auto;enable-background:accumulate;stop-color:#000000"
       d="m 170.70147,114.12022 c -0.13715,0.005 -0.27622,0.0155 -0.41756,0.032 -1.15713,0.13571 -2.22274,0.63467 -3.1755,1.4764 -0.19415,0.17288 -0.73705,0.6617 -0.75396,1.34772 -0.008,0.30513 0.0423,0.66275 0.24236,0.96273 0.20008,0.29999 0.59542,0.50408 1.07796,0.41807 0.49853,-0.0889 0.75632,-0.42987 0.99013,-0.68937 0.23378,-0.25949 0.45291,-0.47847 0.99838,-0.57051 0.57126,-0.0964 1.06111,-0.0477 1.40406,0.11938 0.34298,0.16702 0.55592,0.43202 0.62323,0.87901 0.14642,0.97237 -0.14457,1.46222 -0.56277,2.18126 -0.16767,0.28956 -0.39278,0.62663 -0.59738,0.9493 -0.2046,0.32267 -0.38989,0.62298 -0.48265,0.89865 -0.15465,0.45987 -0.32398,1.09202 -0.14833,2.10168 0.0533,0.30631 0.22225,0.54945 0.4377,0.69505 0.21545,0.1456 0.47099,0.20045 0.7147,0.1819 0.2437,-0.0186 0.48117,-0.1087 0.66405,-0.28318 0.18288,-0.17449 0.29808,-0.44191 0.27903,-0.73846 -0.0543,-0.84487 0.15084,-1.3183 0.69559,-2.02933 v -0.002 c 0.4283,-0.53487 0.75784,-0.94889 0.98803,-1.24024 0.23122,-0.29263 0.3469,-0.43841 0.40463,-0.52555 l 0.004,-0.004 0.004,-0.006 c 0.49242,-0.82502 0.68289,-1.74312 0.56846,-2.71869 -0.13273,-1.13197 -0.61334,-2.04193 -1.4294,-2.66806 -0.71271,-0.54679 -1.5681,-0.80148 -2.52801,-0.76791 z m -12.73204,4.5806 c -1.48172,0.0628 -2.48906,0.97358 -2.61638,2.03089 -0.27837,2.31162 2.5582,2.65324 2.49494,3.17861 -0.0188,0.15762 -0.19518,0.29622 -0.45786,0.26459 -1.05074,-0.12654 -1.70429,-0.89814 -1.70429,-0.89814 l -0.47646,0.58343 c 0.0564,-0.32154 0.0776,-0.655 0.0501,-0.99891 -0.17296,-2.16267 -1.99607,-3.7158 -4.42249,-3.52175 -1.88986,0.15115 -3.24582,1.29235 -3.67315,2.81069 l -0.22582,-2.83394 -2.74299,0.21911 0.20206,2.53163 -1.68828,0.13487 -0.20204,-2.53214 -2.74298,0.2191 0.0232,0.29404 -2.5518,0.13126 -0.37155,4.09949 -1.00251,-4.02869 -2.43086,0.12557 -0.5829,4.10983 -0.79118,-4.03903 -2.85356,0.14676 1.96627,7.31687 3.06544,-0.15813 0.59947,-3.79254 0.98597,3.71089 3.06493,-0.15762 1.002,-6.2208 0.46665,5.84718 2.74246,-0.2191 -0.20153,-2.53215 1.68775,-0.13436 0.20206,2.53163 2.74299,-0.21859 -0.1478,-1.85415 c 0.66268,1.43237 2.18281,2.34489 4.07366,2.19366 1.51913,-0.12149 2.69552,-0.88161 3.32073,-1.9637 0.39418,0.42587 1.25315,1.11859 2.8298,1.30845 1.32437,0.15948 2.36413,-0.32426 2.89801,-1.05834 l -0.13592,1.13792 5.88491,0.70125 0.25064,-2.10168 -3.15277,-0.37569 0.0625,-0.52555 2.73264,0.32556 0.25064,-2.10168 -2.73264,-0.32556 0.0625,-0.52555 2.94246,0.35088 0.25061,-2.1022 -5.67457,-0.67592 -0.1044,0.87643 c -0.33486,-0.37859 -1.13057,-1.09162 -2.5063,-1.25729 -0.22984,-0.0277 -0.45082,-0.0364 -0.66249,-0.0274 z m 13.59038,7.26209 c -0.0515,7.7e-4 -0.10337,0.004 -0.15555,0.0103 -0.41127,0.0482 -0.86598,0.23038 -1.13067,0.61289 -1e-4,1.3e-4 -0.003,-1.4e-4 -0.003,0 -0.23316,0.33107 -0.32938,0.72744 -0.28112,1.13894 0.0485,0.41294 0.23344,0.77827 0.53691,1.05834 v 0.002 h 0.003 c 0.34647,0.31121 0.83198,0.40845 1.24799,0.35966 0.41722,-0.0489 0.77618,-0.26889 1.0175,-0.61753 0.2376,-0.34316 0.33751,-0.7435 0.28888,-1.15807 -0.0482,-0.41218 -0.23749,-0.77405 -0.54674,-1.04076 0,-4.5e-4 -2.1e-4,4.5e-4 -0.003,0 -0.27125,-0.24379 -0.61111,-0.37072 -0.97309,-0.36587 z m -3.58272,4.38423 c -0.12171,6.6e-4 -0.24644,0.005 -0.37465,0.0129 -0.31142,0.0124 -0.6404,0.0511 -0.986,0.11731 -1.66309,0.31866 -3.09801,0.70125 -3.09801,0.70125 l 0.0398,0.20825 -2.02674,-0.14211 -0.22997,3.27319 -1.56475,-3.39876 -3.06184,-0.21498 -0.27852,3.96927 -0.39172,-3.67316 -2.73627,0.29145 0.42117,3.94653 c 0.0618,0.5788 -0.26752,0.98665 -0.74105,1.03715 -0.47358,0.0505 -0.88138,-0.27851 -0.94308,-0.85731 l -0.42066,-3.94653 -2.73627,0.29197 0.13023,1.21801 c -0.65312,-0.92472 -1.74223,-1.56442 -3.11557,-1.6831 -1.96128,-0.16948 -3.53396,0.80682 -4.16306,2.32958 -0.32814,-0.96982 -1.30374,-1.64658 -3.03599,-1.79628 -1.5816,-0.13667 -3.067,-0.15864 -3.067,-0.15864 l -0.63767,7.38042 2.74143,0.2372 0.20981,-2.42518 0.10541,0.009 1.05574,2.53473 3.16312,0.27337 -1.54667,-3.00188 c 0,0 0.45246,-0.20409 0.78755,-0.80512 0.31888,1.66178 1.71644,2.94689 3.72224,3.12022 2.03671,0.17601 3.65117,-0.88529 4.22818,-2.5094 0.49905,1.64283 1.97106,2.61536 3.80288,2.42 1.51217,-0.16127 2.61371,-1.05043 3.03289,-2.31769 l -0.10594,1.50586 2.74505,0.19223 0.22995,-3.27267 1.56478,3.39876 3.06181,0.21498 0.32866,-4.68551 0.82632,4.3124 c 0,0 1.47468,-0.17484 3.13778,-0.49351 2.76484,-0.52978 3.86887,-2.30399 3.44061,-4.53874 -0.58796,-2.27565 -1.68833,-3.08501 -3.51398,-3.07526 z"
       inkscape:export-xdpi="335.67859"
       inkscape:export-ydpi="335.67859" />
    <path
       style="color:#000000;font-style:normal;font-variant:normal;font-weight:normal;font-stretch:normal;font-size:10.5833px;line-height:1.25;font-family:'Peace Sans';-inkscape-font-specification:'Peace Sans';font-variant-ligatures:normal;font-variant-position:normal;font-variant-caps:normal;font-variant-numeric:normal;font-variant-alternates:normal;font-variant-east-asian:normal;font-feature-settings:normal;font-variation-settings:normal;text-indent:0;text-align:start;text-decoration:none;text-decoration-line:none;text-decoration-style:solid;text-decoration-color:#000000;letter-spacing:normal;word-spacing:normal;text-transform:none;writing-mode:lr-tb;direction:ltr;text-orientation:mixed;dominant-baseline:auto;baseline-shift:baseline;text-anchor:start;white-space:normal;shape-padding:0;shape-margin:0;inline-size:0;clip-rule:nonzero;display:inline;overflow:visible;visibility:visible;isolation:auto;mix-blend-mode:normal;color-interpolation:sRGB;color-interpolation-filters:linearRGB;solid-color:#000000;solid-opacity:1;vector-effect:none;fill:#fad200;fill-opacity:1;fill-rule:nonzero;stroke:none;stroke-width:2.91042;stroke-linecap:round;stroke-linejoin:round;stroke-miterlimit:4;stroke-dasharray:none;stroke-dashoffset:0;stroke-opacity:1;color-rendering:auto;image-rendering:auto;shape-rendering:auto;text-rendering:auto;enable-background:accumulate;stop-color:#000000"
       d="m 170.10617,113.57969 c -0.13714,0.005 -0.27625,0.0155 -0.41757,0.032 -1.15715,0.13571 -2.22274,0.63466 -3.1755,1.47639 -0.19415,0.17289 -0.73705,0.66171 -0.75396,1.34772 -0.008,0.30513 0.0423,0.66275 0.24236,0.96274 0.20008,0.29998 0.59542,0.50407 1.07797,0.41806 0.49852,-0.0889 0.75631,-0.42987 0.99012,-0.68936 0.23379,-0.2595 0.45291,-0.47847 0.99838,-0.57051 0.57126,-0.0964 1.06111,-0.0477 1.40406,0.11937 0.34298,0.16703 0.55592,0.43203 0.62323,0.87902 0.14642,0.97237 -0.14457,1.46222 -0.56277,2.18126 -0.16767,0.28956 -0.39277,0.62663 -0.59738,0.94929 -0.2046,0.32267 -0.38989,0.62299 -0.48265,0.89866 -0.15465,0.45986 -0.32398,1.09202 -0.14832,2.10168 0.0533,0.3063 0.22225,0.54945 0.4377,0.69505 0.21545,0.1456 0.47098,0.20045 0.71469,0.1819 0.24371,-0.0186 0.48117,-0.1087 0.66405,-0.28319 0.18288,-0.17449 0.29808,-0.44191 0.27903,-0.73846 -0.0543,-0.84487 0.15086,-1.3183 0.69559,-2.02933 v -0.002 c 0.42831,-0.53487 0.75784,-0.94889 0.98803,-1.24023 0.23122,-0.29264 0.3469,-0.43842 0.40463,-0.52555 l 0.004,-0.004 0.004,-0.006 c 0.49241,-0.82503 0.68289,-1.74313 0.56845,-2.7187 -0.13272,-1.13196 -0.61384,-2.04193 -1.42989,-2.66806 -0.71271,-0.54679 -1.56761,-0.80147 -2.52752,-0.76791 z m -12.73204,4.5806 c -1.48172,0.0628 -2.48907,0.97358 -2.61639,2.03088 -0.27837,2.31163 2.5582,2.65325 2.49494,3.17862 -0.0188,0.15762 -0.19518,0.29621 -0.45786,0.26458 -1.05074,-0.12653 -1.70429,-0.89813 -1.70429,-0.89813 l -0.47646,0.58342 c 0.0564,-0.32154 0.0776,-0.655 0.0501,-0.9989 -0.17296,-2.16267 -1.99607,-3.71581 -4.42248,-3.52175 -1.88987,0.15114 -3.24583,1.29234 -3.67316,2.81068 l -0.22582,-2.83394 -2.74299,0.21911 0.20206,2.53163 -1.68828,0.13488 -0.20203,-2.53215 -2.74299,0.21911 0.0233,0.29404 -2.5518,0.13126 -0.37155,4.09949 -1.00251,-4.0287 -2.43086,0.12558 -0.5829,4.10982 -0.79119,-4.03903 -2.85355,0.14676 1.96627,7.31687 3.06544,-0.15813 0.59947,-3.79253 0.98597,3.71088 3.06493,-0.15761 1.002,-6.22081 0.46665,5.84719 2.74246,-0.21911 -0.20154,-2.53215 1.68775,-0.13435 0.20207,2.53162 2.74298,-0.21859 -0.14779,-1.85415 c 0.66267,1.43238 2.18281,2.34489 4.07366,2.19367 1.51913,-0.1215 2.69554,-0.88162 3.32073,-1.96371 0.3942,0.42587 1.25317,1.11859 2.8298,1.30845 1.32437,0.15948 2.36413,-0.32425 2.898,-1.05833 l -0.13591,1.13791 5.88491,0.70125 0.25064,-2.10168 -3.15277,-0.37569 0.0625,-0.52555 2.73264,0.32556 0.25064,-2.10168 -2.73264,-0.32556 0.0625,-0.52555 2.94245,0.35089 0.25061,-2.1022 -5.67456,-0.67593 -0.10441,0.87643 c -0.33488,-0.37858 -1.13057,-1.09162 -2.50629,-1.25728 -0.22984,-0.0277 -0.45082,-0.0364 -0.66249,-0.0274 z m 3.10263,1.84071 -0.32554,2.72697 c -0.5551,-1.3331 -2.41036,-1.63893 -2.35903,-2.06499 0.019,-0.1576 0.19566,-0.29622 0.45837,-0.26459 0.73551,0.0886 1.29603,0.74259 1.29603,0.74259 z m -10.02831,1.38286 c 0.63296,-0.0506 1.20237,0.43459 1.26142,1.17306 0.0591,0.73847 -0.4259,1.30795 -1.05886,1.35857 -0.63296,0.0506 -1.20287,-0.43458 -1.26193,-1.17305 -0.0591,-0.73848 0.42638,-1.30795 1.05937,-1.35858 z m 20.51605,4.03852 c -0.0515,7.6e-4 -0.10337,0.004 -0.15555,0.0103 -0.41127,0.0482 -0.86598,0.23037 -1.13067,0.61288 -1e-4,1.3e-4 -0.003,-1.3e-4 -0.003,0 -0.23313,0.33108 -0.32938,0.72744 -0.28112,1.13895 0.0485,0.41294 0.23344,0.77826 0.53692,1.05833 v 0.002 h 0.003 c 0.34647,0.31122 0.83198,0.40845 1.24799,0.35967 0.41722,-0.0489 0.77618,-0.2689 1.01751,-0.61753 0.23759,-0.34317 0.3375,-0.74351 0.28887,-1.15807 -0.0482,-0.41219 -0.23749,-0.77405 -0.54674,-1.04077 0,-4.5e-4 -1e-4,4.5e-4 -0.003,0 -0.27125,-0.24379 -0.61111,-0.37072 -0.97309,-0.36587 v 0 z m -3.95734,4.39695 c -0.31141,0.0124 -0.64037,0.0511 -0.98597,0.11731 -1.66309,0.31866 -3.098,0.70125 -3.098,0.70125 l 0.0398,0.20825 -2.02676,-0.14211 -0.22995,3.27319 -1.56477,-3.39876 -3.06184,-0.21498 -0.27853,3.96927 -0.39171,-3.67316 -2.73627,0.29145 0.42116,3.94653 c 0.0618,0.5788 -0.26749,0.98664 -0.74102,1.03715 -0.47357,0.0505 -0.88138,-0.27852 -0.9431,-0.85731 l -0.42064,-3.94653 -2.73627,0.29197 0.1302,1.21801 c -0.65312,-0.92472 -1.7422,-1.56442 -3.11554,-1.6831 -1.96128,-0.16948 -3.53396,0.80682 -4.16306,2.32958 -0.32814,-0.96983 -1.30374,-1.64658 -3.03599,-1.79628 -1.5816,-0.13667 -3.067,-0.15864 -3.067,-0.15864 l -0.6377,7.38042 2.74143,0.2372 0.20981,-2.42518 0.10544,0.009 1.05574,2.53473 3.16312,0.27337 -1.54667,-3.00189 c 0,0 0.45243,-0.20408 0.78753,-0.80511 0.31888,1.66178 1.71643,2.94689 3.72226,3.12022 2.03671,0.176 3.65117,-0.8853 4.22818,-2.50941 0.49905,1.64283 1.97104,2.61537 3.80285,2.42001 1.51218,-0.16127 2.61374,-1.05043 3.0329,-2.31769 l -0.10594,1.50585 2.74505,0.19224 0.22995,-3.27267 1.56477,3.39876 3.06184,0.21497 0.32866,-4.6855 0.8263,4.3124 c 0,0 1.47471,-0.17484 3.1378,-0.49351 2.76484,-0.52978 3.86884,-2.30399 3.44061,-4.53874 -0.62717,-2.42736 -1.83712,-3.18614 -3.88867,-3.06236 z m 0.97825,3.61993 c 0.18917,0.98747 -0.18885,1.54516 -0.96843,1.69447 l -0.41548,0.0796 -0.55758,-2.91041 c 0.96792,-0.26431 1.68954,0.0318 1.94149,1.13636 z m -30.40589,0.0279 0.31625,0.0274 c 0.36903,0.032 0.60973,0.31827 0.58238,0.63459 -0.0273,0.31632 -0.322,0.6096 -0.68263,0.52503 l -0.31626,-0.0274 z m 7.46516,0.0739 c 0.63265,0.0547 1.11437,0.62721 1.05058,1.36529 -0.0638,0.73808 -0.63653,1.21998 -1.26918,1.16531 -0.63262,-0.0547 -1.11434,-0.62773 -1.05058,-1.36581 0.0638,-0.73808 0.63654,-1.21946 1.26918,-1.16479 z"
       id="path1805"
       sodipodi:nodetypes="ssccsssssscsssssssccscccsssssscsccssccccccccccccccccccccccccccccscsccccccccccccccsssccssccsssssssscscccsscccscscsccccccccccsccccscscccccccccscsccccccccscccsccccsssccsssss"
       inkscape:export-xdpi="335.67859"
       inkscape:export-ydpi="335.67859" />
  </g>
</svg>
