<?xml version="1.0" encoding="UTF-8" standalone="no"?>
<svg
   xmlns:dc="http://purl.org/dc/elements/1.1/"
   xmlns:cc="http://creativecommons.org/ns#"
   xmlns:rdf="http://www.w3.org/1999/02/22-rdf-syntax-ns#"
   xmlns:svg="http://www.w3.org/2000/svg"
   xmlns="http://www.w3.org/2000/svg"
   xmlns:sodipodi="http://sodipodi.sourceforge.net/DTD/sodipodi-0.dtd"
   xmlns:inkscape="http://www.inkscape.org/namespaces/inkscape"
   width="33.866665mm"
   height="33.866665mm"
   viewBox="0 0 33.866665 33.866665"
   version="1.1"
   id="svg1573"
   inkscape:version="1.0.1 (3bc2e813f5, 2020-09-07)"
   sodipodi:docname="whose-round-app-icon.svg">
  <defs
     id="defs1567" />
  <sodipodi:namedview
     id="base"
     pagecolor="#ffffff"
     bordercolor="#666666"
     borderopacity="1.0"
     inkscape:pageopacity="0.0"
     inkscape:pageshadow="2"
     inkscape:zoom="2.8"
     inkscape:cx="66.301822"
     inkscape:cy="111.71627"
     inkscape:document-units="mm"
     inkscape:current-layer="layer1"
     inkscape:document-rotation="0"
     showgrid="false"
     inkscape:window-width="1267"
     inkscape:window-height="1198"
     inkscape:window-x="2742"
     inkscape:window-y="44"
     inkscape:window-maximized="0" />
  <metadata
     id="metadata1570">
    <rdf:RDF>
      <cc:Work
         rdf:about="">
        <dc:format>image/svg+xml</dc:format>
        <dc:type
           rdf:resource="http://purl.org/dc/dcmitype/StillImage" />
        <dc:title></dc:title>
      </cc:Work>
    </rdf:RDF>
  </metadata>
  <g
     inkscape:label="Layer 1"
     inkscape:groupmode="layer"
     id="layer1"
     transform="translate(-137.11124,-27.498137)">
    <g
       id="g2164"
       transform="matrix(0.874163,0,0,0.874163,17.253667,3.460283)"
       style="stroke-width:1.14395">
      <rect
         style="fill:#1a1a1a;fill-opacity:1;stroke:none;stroke-width:0.571975;stroke-linecap:round;stroke-linejoin:round;stroke-miterlimit:4;stroke-dasharray:none;stroke-opacity:1;stop-color:#000000"
         id="rect6117"
         width="38.741821"
         height="38.741821"
         x="137.11124"
         y="27.498137"
         rx="6.2838535"
         ry="6.2838535"
         inkscape:export-xdpi="335.67859"
         inkscape:export-ydpi="335.67859" />
      <path
         id="path6119"
         style="color:#000000;font-style:normal;font-variant:normal;font-weight:normal;font-stretch:normal;font-size:medium;line-height:normal;font-family:sans-serif;font-variant-ligatures:normal;font-variant-position:normal;font-variant-caps:normal;font-variant-numeric:normal;font-variant-alternates:normal;font-variant-east-asian:normal;font-feature-settings:normal;font-variation-settings:normal;text-indent:0;text-align:start;text-decoration:none;text-decoration-line:none;text-decoration-style:solid;text-decoration-color:#000000;letter-spacing:normal;word-spacing:normal;text-transform:none;writing-mode:lr-tb;direction:ltr;text-orientation:mixed;dominant-baseline:auto;baseline-shift:baseline;text-anchor:start;white-space:normal;shape-padding:0;shape-margin:0;inline-size:0;clip-rule:nonzero;display:inline;overflow:visible;visibility:visible;isolation:auto;mix-blend-mode:normal;color-interpolation:sRGB;color-interpolation-filters:linearRGB;solid-color:#000000;solid-opacity:1;vector-effect:none;fill:#fad200;fill-opacity:1;fill-rule:nonzero;stroke:none;stroke-width:1.42994;stroke-linecap:round;stroke-linejoin:round;stroke-miterlimit:4;stroke-dasharray:none;stroke-dashoffset:0;stroke-opacity:1;color-rendering:auto;image-rendering:auto;shape-rendering:auto;text-rendering:auto;enable-background:accumulate;stop-color:#000000"
         d="m 158.64117,33.704045 -7.29443,0.509807 -5.42351,2.503644 c -0.0377,0.01739 -0.10339,0.17 -0.0935,0.200431 0.69526,2.145636 2.74849,7.942627 4.85993,10.754148 0.2417,0.321841 0.78451,0.914092 1.12926,1.330388 2.75763,3.329901 5.87291,8.892219 6.78742,11.868043 0.0395,0.12818 0.14068,0.335111 0.24582,0.470697 0.10514,0.135586 0.20758,0.171527 0.15226,0.159229 0.60124,0.133762 1.83079,0.191952 3.94996,-0.657863 0.41421,-0.166103 1.14775,-0.504494 1.54339,-0.712332 2.02187,-1.062136 2.77322,-2.037834 3.06093,-2.581863 -0.0268,0.05065 0.0135,-0.04865 -0.0216,-0.216492 -0.0351,-0.167815 -0.12609,-0.379648 -0.19834,-0.493049 -1.67235,-2.626455 -3.88285,-8.605822 -4.63018,-12.863214 -0.0935,-0.532453 -0.19582,-1.329941 -0.28423,-1.723568 -0.56842,-2.53066 -2.39029,-6.083421 -3.78305,-8.548006 z"
         inkscape:export-xdpi="335.67859"
         inkscape:export-ydpi="335.67859" />
      <path
         id="path6121"
         style="color:#000000;font-style:normal;font-variant:normal;font-weight:normal;font-stretch:normal;font-size:medium;line-height:normal;font-family:sans-serif;font-variant-ligatures:normal;font-variant-position:normal;font-variant-caps:normal;font-variant-numeric:normal;font-variant-alternates:normal;font-variant-east-asian:normal;font-feature-settings:normal;font-variation-settings:normal;text-indent:0;text-align:start;text-decoration:none;text-decoration-line:none;text-decoration-style:solid;text-decoration-color:#000000;letter-spacing:normal;word-spacing:normal;text-transform:none;writing-mode:lr-tb;direction:ltr;text-orientation:mixed;dominant-baseline:auto;baseline-shift:baseline;text-anchor:start;white-space:normal;shape-padding:0;shape-margin:0;inline-size:0;clip-rule:nonzero;display:inline;overflow:visible;visibility:visible;isolation:auto;mix-blend-mode:normal;color-interpolation:sRGB;color-interpolation-filters:linearRGB;solid-color:#000000;solid-opacity:1;vector-effect:none;fill:#fad200;fill-opacity:1;fill-rule:nonzero;stroke:none;stroke-width:1.42994;stroke-linecap:round;stroke-linejoin:round;stroke-miterlimit:4;stroke-dasharray:none;stroke-dashoffset:0;stroke-opacity:1;color-rendering:auto;image-rendering:auto;shape-rendering:auto;text-rendering:auto;enable-background:accumulate;stop-color:#000000"
         d="m 158.64117,33.704045 -7.29443,0.509807 -5.42351,2.503644 c -0.0377,0.01739 -0.10339,0.17 -0.0935,0.200431 0.69526,2.145636 2.74849,7.942627 4.85993,10.754148 0.2417,0.321841 0.78451,0.914092 1.12926,1.330388 2.75763,3.329901 5.87291,8.892219 6.78742,11.868043 0.0395,0.12818 0.14068,0.335111 0.24582,0.470697 0.10514,0.135586 0.20758,0.171527 0.15226,0.159229 0.60124,0.133762 1.83079,0.191952 3.94996,-0.657863 0.41421,-0.166103 1.14775,-0.504494 1.54339,-0.712332 2.02187,-1.062136 2.77322,-2.037834 3.06093,-2.581863 -0.0268,0.05065 0.0135,-0.04865 -0.0216,-0.216492 -0.0351,-0.167815 -0.12609,-0.379648 -0.19834,-0.493049 -1.67235,-2.626455 -3.88285,-8.605822 -4.63018,-12.863214 -0.0935,-0.532453 -0.19582,-1.329941 -0.28423,-1.723568 -0.56842,-2.53066 -2.39029,-6.083421 -3.78305,-8.548006 z"
         inkscape:export-xdpi="335.67859"
         inkscape:export-ydpi="335.67859" />
      <path
         style="fill:#f9f9f9;stroke:none;stroke-width:0.151336;stroke-linecap:butt;stroke-linejoin:miter;stroke-miterlimit:4;stroke-dasharray:none;stroke-opacity:1"
         d="m 146.56126,34.562369 c 2.49491,-0.65052 5.41392,-0.725889 7.37786,-0.750282 3.63451,-0.04515 4.62779,-0.970709 4.62779,-0.970709 l 1.15131,1.444775 c 0,0 -1.28675,2.415486 -6.59178,2.009141 -2.91141,-0.223006 -5.31288,-0.180844 -7.00666,0.12648 z"
         id="path6123"
         sodipodi:nodetypes="csccsc"
         inkscape:export-xdpi="335.67859"
         inkscape:export-ydpi="335.67859" />
      <path
         style="color:#000000;font-style:normal;font-variant:normal;font-weight:normal;font-stretch:normal;font-size:medium;line-height:normal;font-family:sans-serif;font-variant-ligatures:normal;font-variant-position:normal;font-variant-caps:normal;font-variant-numeric:normal;font-variant-alternates:normal;font-variant-east-asian:normal;font-feature-settings:normal;font-variation-settings:normal;text-indent:0;text-align:start;text-decoration:none;text-decoration-line:none;text-decoration-style:solid;text-decoration-color:#000000;letter-spacing:normal;word-spacing:normal;text-transform:none;writing-mode:lr-tb;direction:ltr;text-orientation:mixed;dominant-baseline:auto;baseline-shift:baseline;text-anchor:start;white-space:normal;shape-padding:0;shape-margin:0;inline-size:0;clip-rule:nonzero;display:inline;overflow:visible;visibility:visible;isolation:auto;mix-blend-mode:normal;color-interpolation:sRGB;color-interpolation-filters:linearRGB;solid-color:#000000;solid-opacity:1;vector-effect:none;fill:#f9f9f9;fill-opacity:1;fill-rule:nonzero;stroke:none;stroke-width:1.42994;stroke-linecap:round;stroke-linejoin:round;stroke-miterlimit:4;stroke-dasharray:none;stroke-dashoffset:0;stroke-opacity:1;color-rendering:auto;image-rendering:auto;shape-rendering:auto;text-rendering:auto;enable-background:accumulate;stop-color:#000000"
         d="m 145.21518,35.18372 c -0.85879,0.396479 -1.28589,1.345466 -0.99138,2.254342 0.71379,2.202802 2.67088,7.989915 5.11655,11.246487 0.35018,0.466291 0.89153,1.05186 1.17649,1.395961 2.55314,3.082982 5.71349,8.817274 6.47227,11.286344 0.10542,0.343085 0.27701,0.687004 0.52717,1.009629 0.25016,0.322633 0.58738,0.654225 1.12149,0.773046 0.98704,0.219586 2.58743,0.206256 4.9442,-0.738849 0.50095,-0.20089 1.22309,-0.534209 1.70147,-0.785513 2.24856,-1.181224 3.29552,-2.39259 3.76814,-3.286263 0.25578,-0.483674 0.22257,-0.955616 0.13904,-1.354992 -0.0835,-0.39937 -0.23521,-0.750099 -0.42781,-1.052592 -1.38711,-2.178484 -3.69768,-8.305081 -4.38977,-12.247773 -0.0772,-0.439789 -0.1715,-1.231498 -0.29939,-1.800886 -0.8927,-3.974365 -4.02923,-9.220398 -5.24228,-11.191353 -0.50073,-0.813595 -1.5019,-1.100363 -2.36012,-0.704152 l -4.81685,2.223778 z m 0.70806,1.533721 6.43923,-2.972783 4.81684,-2.223779 c 0.0383,-0.01766 0.19593,0.03008 0.21201,0.05621 1.18155,1.919779 4.26205,7.243258 5.03279,10.674642 0.0884,0.393627 0.19062,1.191192 0.28409,1.723646 0.74733,4.25739 2.95806,10.237023 4.6304,12.863476 0.0722,0.113398 0.16327,0.324935 0.19842,0.492747 0.0351,0.167838 -0.005,0.267443 0.0216,0.216792 -0.28771,0.54403 -1.03935,1.519832 -3.06123,2.58197 -0.39564,0.207836 -1.12908,0.546389 -1.54331,0.712494 -2.11915,0.849813 -3.34838,0.79139 -3.94962,0.65763 0.0553,0.0123 -0.047,-0.02387 -0.15211,-0.159451 -0.10514,-0.135586 -0.20695,-0.342445 -0.24635,-0.47062 -0.91449,-2.975824 -4.02956,-8.537854 -6.78718,-11.867755 -0.34476,-0.416296 -0.88722,-1.008864 -1.12892,-1.330706 -2.11144,-2.81152 -4.16499,-8.608661 -4.86026,-10.754297 -0.009,-0.03043 0.0559,-0.182825 0.0937,-0.200215 z"
         id="path6125"
         inkscape:export-xdpi="335.67859"
         inkscape:export-ydpi="335.67859" />
      <path
         id="path6127"
         style="fill:#f9f9f9;stroke:none;stroke-width:0.151336;stroke-linecap:butt;stroke-linejoin:miter;stroke-miterlimit:4;stroke-dasharray:none;stroke-opacity:1"
         d="m 146.56153,34.56204 c -2.12225,0.553347 -3.93762,1.523049 -4.59735,3.231342 -1.02727,2.660048 0.27938,4.971555 1.66282,4.887867 3.47891,-0.210448 -1.39957,-5.292998 2.93383,-8.118512 z"
         inkscape:export-xdpi="335.67859"
         inkscape:export-ydpi="335.67859" />
      <path
         id="path6129"
         style="font-style:normal;font-variant:normal;font-weight:normal;font-stretch:normal;font-size:10.5833px;line-height:1.25;font-family:'Berlin Sans FB';-inkscape-font-specification:'Berlin Sans FB';white-space:pre;fill:#d40000;fill-opacity:1;stroke:#f9f9f9;stroke-width:2.2879;stroke-miterlimit:4;stroke-dasharray:none;stroke-opacity:1"
         d="m 157.00341,40.584197 c -1.10198,0.129237 -2.11227,0.599654 -3.03091,1.411246 -0.17541,0.156182 -0.65128,0.624668 -0.66439,1.156951 -0.0135,0.532283 0.20365,1.25731 1.00915,1.113727 0.80544,-0.143569 0.77169,-1.054548 1.98994,-1.260105 1.21825,-0.205552 2.17725,0.178315 2.33407,1.219866 0.15684,1.041549 -0.17654,1.633123 -0.5957,2.35385 -0.34904,0.602728 -0.90675,1.350781 -1.05781,1.799756 -0.15099,0.448972 -0.3058,1.006098 -0.1378,1.971792 0.16795,0.965692 1.62791,0.817516 1.57016,-0.08244 -0.0578,-0.899952 0.18439,-1.473318 0.74827,-2.209018 0.86184,-1.07614 1.32285,-1.659711 1.38319,-1.750741 0.46415,-0.777664 0.64205,-1.62831 0.53373,-2.551931 -0.12622,-1.076493 -0.569,-1.906011 -1.32824,-2.488538 -0.75926,-0.582526 -1.67716,-0.810665 -2.75366,-0.684415 z m 0.98909,10.993989 c -0.35035,0.04108 -0.74806,0.212355 -0.94674,0.500414 -0.19947,0.281689 -0.27823,0.600884 -0.2364,0.957593 0.0419,0.356708 0.19306,0.655388 0.45379,0.896022 0.26707,0.239891 0.69578,0.332966 1.03975,0.292627 0.35033,-0.04108 0.62764,-0.209213 0.83195,-0.504386 0.20437,-0.295179 0.28556,-0.621117 0.24372,-0.977826 -0.0417,-0.356707 -0.1954,-0.648656 -0.46111,-0.87579 -0.25994,-0.234276 -0.56824,-0.33049 -0.92496,-0.288654 z"
         inkscape:export-xdpi="335.67859"
         inkscape:export-ydpi="335.67859" />
      <path
         id="path6131"
         style="font-style:normal;font-variant:normal;font-weight:normal;font-stretch:normal;font-size:10.5833px;line-height:1.25;font-family:'Berlin Sans FB';-inkscape-font-specification:'Berlin Sans FB';white-space:pre;fill:#1a1a1a;fill-opacity:1;stroke:none;stroke-width:1.1441;stroke-miterlimit:4;stroke-dasharray:none;stroke-opacity:1"
         d="m 157.00341,40.584197 c -1.10198,0.129237 -2.11227,0.599654 -3.03091,1.411246 -0.17541,0.156182 -0.65128,0.624668 -0.66439,1.156951 -0.0135,0.532283 0.20365,1.25731 1.00915,1.113727 0.80544,-0.143569 0.77169,-1.054548 1.98994,-1.260105 1.21825,-0.205552 2.17725,0.178315 2.33407,1.219866 0.15684,1.041549 -0.17654,1.633123 -0.5957,2.35385 -0.34904,0.602728 -0.90675,1.350781 -1.05781,1.799756 -0.15099,0.448972 -0.3058,1.006098 -0.1378,1.971792 0.16795,0.965692 1.62791,0.817516 1.57016,-0.08244 -0.0578,-0.899952 0.18439,-1.473318 0.74827,-2.209018 0.86184,-1.07614 1.32285,-1.659711 1.38319,-1.750741 0.46415,-0.777664 0.64205,-1.62831 0.53373,-2.551931 -0.12622,-1.076493 -0.569,-1.906011 -1.32824,-2.488538 -0.75926,-0.582526 -1.67716,-0.810665 -2.75366,-0.684415 z m 0.98909,10.993989 c -0.35035,0.04108 -0.74806,0.212355 -0.94674,0.500414 -0.19947,0.281689 -0.27823,0.600884 -0.2364,0.957593 0.0419,0.356708 0.19306,0.655388 0.45379,0.896022 0.26707,0.239891 0.69578,0.332966 1.03975,0.292627 0.35033,-0.04108 0.62764,-0.209213 0.83195,-0.504386 0.20437,-0.295179 0.28556,-0.621117 0.24372,-0.977826 -0.0417,-0.356707 -0.1954,-0.648656 -0.46111,-0.87579 -0.25994,-0.234276 -0.56824,-0.33049 -0.92496,-0.288654 z"
         inkscape:export-xdpi="335.67859"
         inkscape:export-ydpi="335.67859" />
    </g>
  </g>
</svg>
